<svg width="26" height="20" viewBox="0 0 26 20" fill="none" xmlns="http://www.w3.org/2000/svg">
<path d="M13 3.625C14.9539 3.625 16.538 2.03933 16.538 0.0833282H17.7788C18.4135 0.0833282 19.0296 0.296805 19.5284 0.689506L25.2095 5.1617C25.822 5.64375 25.9299 6.53055 25.4512 7.14578L23.6729 9.43135C23.1873 10.0555 22.2853 10.1606 21.6694 9.66481L19.6222 8.01666V15.6667C19.6222 18.0139 17.7215 19.9167 15.3766 19.9167H10.7668C8.42193 19.9167 6.5211 18.0139 6.5211 15.6667V8.01666L4.32395 9.70533C3.70729 10.1792 2.82417 10.0664 2.34611 9.45274L0.549241 7.14591C0.0700254 6.53071 0.177862 5.64345 0.790457 5.16121L6.47092 0.689491C6.96976 0.296805 7.58595 0.0833282 8.22055 0.0833282H9.46192C9.46192 2.03933 11.046 3.625 13 3.625Z" fill="white"/>
</svg>
