<svg width="28" height="28" viewBox="0 0 28 28" fill="none" xmlns="http://www.w3.org/2000/svg">
<path fill-rule="evenodd" clip-rule="evenodd" d="M6.5625 0.895828C3.43288 0.895828 0.895832 3.43288 0.895832 6.5625V21.4375C0.895832 24.5671 3.43288 27.1042 6.5625 27.1042H21.4375C24.5671 27.1042 27.1042 24.5671 27.1042 21.4375V6.5625C27.1042 3.43288 24.5671 0.895828 21.4375 0.895828H6.5625ZM7.625 9.75C8.79861 9.75 9.75 8.7986 9.75 7.625C9.75 6.45139 8.79861 5.5 7.625 5.5C6.45139 5.5 5.5 6.45139 5.5 7.625C5.5 8.7986 6.45139 9.75 7.625 9.75ZM9.75 20.375C9.75 21.5486 8.79861 22.5 7.625 22.5C6.45139 22.5 5.5 21.5486 5.5 20.375C5.5 19.2014 6.45139 18.25 7.625 18.25C8.79861 18.25 9.75 19.2014 9.75 20.375ZM20.375 9.75C21.5486 9.75 22.5 8.7986 22.5 7.625C22.5 6.45139 21.5486 5.5 20.375 5.5C19.2014 5.5 18.25 6.45139 18.25 7.625C18.25 8.7986 19.2014 9.75 20.375 9.75ZM22.5 20.375C22.5 21.5486 21.5486 22.5 20.375 22.5C19.2014 22.5 18.25 21.5486 18.25 20.375C18.25 19.2014 19.2014 18.25 20.375 18.25C21.5486 18.25 22.5 19.2014 22.5 20.375ZM14 16.125C15.1736 16.125 16.125 15.1736 16.125 14C16.125 12.8264 15.1736 11.875 14 11.875C12.8264 11.875 11.875 12.8264 11.875 14C11.875 15.1736 12.8264 16.125 14 16.125Z" fill="white"/>
</svg>
